<?xml version="1.0" encoding="UTF-8"?>
<svg version="1.1" xmlns="http://www.w3.org/2000/svg" width="1024" height="1024">
<path d="M0 0 C337.92 0 675.84 0 1024 0 C1024 337.92 1024 675.84 1024 1024 C686.08 1024 348.16 1024 0 1024 C0 686.08 0 348.16 0 0 Z " fill="#FEFEFE" transform="translate(0,0)"/>
<path d="M0 0 C1.31750586 -0.00367669 2.63501173 -0.00735338 3.99244201 -0.01114148 C7.63409186 -0.0211047 11.27572523 -0.024869 14.91738677 -0.02753079 C18.85060171 -0.03145033 22.78380381 -0.04102686 26.7170105 -0.04974365 C36.20284055 -0.06945269 45.68867159 -0.07956324 55.17451698 -0.08847144 C59.64366748 -0.09285996 64.11281682 -0.09822498 68.5819664 -0.10346031 C83.43827888 -0.12046043 98.29459063 -0.13495737 113.15091133 -0.14220905 C117.00098802 -0.14411884 120.8510647 -0.1460392 124.70114136 -0.147995 C126.13646148 -0.14872061 126.13646148 -0.14872061 127.60077797 -0.14946087 C143.12238279 -0.15777202 158.64391082 -0.18313261 174.16548206 -0.21557567 C190.10572077 -0.24862231 206.04592038 -0.26665529 221.98619354 -0.26985329 C230.93452024 -0.27201967 239.88273466 -0.28078796 248.83102798 -0.30631447 C256.44597057 -0.32798801 264.06077355 -0.3360881 271.67574348 -0.32634769 C275.56111281 -0.3217944 279.44619386 -0.32374888 283.3315239 -0.34310913 C287.54185816 -0.36390825 291.75154938 -0.3537842 295.96191406 -0.34057617 C297.80684108 -0.35703004 297.80684108 -0.35703004 299.68903935 -0.37381631 C306.01518463 -0.32572062 310.09310208 -0.21323003 314.85397339 4.14717102 C317.12949916 7.30568714 317.09767004 10.09694122 317.08102417 13.92549133 C317.08087311 15.08639282 317.08072205 16.24729431 317.08056641 17.44337463 C317.07024384 18.69140869 317.05992126 19.93944275 317.04928589 21.22529602 C317.04504105 23.14786224 317.04504105 23.14786224 317.04071045 25.10926819 C317.03309127 28.50906741 317.01345773 31.90869448 316.99130249 35.3084259 C316.97080697 38.78069226 316.96170083 42.25298655 316.95162964 45.72529602 C316.93021005 52.53265819 316.89609495 59.33990633 316.85397339 66.14717102 C317.5364212 66.20839142 318.21886902 66.26961182 318.92199707 66.33268738 C319.81945648 66.41696991 320.71691589 66.50125244 321.64157104 66.58808899 C322.53026886 66.66993439 323.41896667 66.75177979 324.33459473 66.83610535 C342.0980456 69.02934446 357.90693808 82.34745114 368.66647339 95.89717102 C381.23958549 113.54963819 385.01464023 133.0909893 384.98768616 154.46678162 C384.98955715 155.80441949 384.99185901 157.14205682 384.99455148 158.47969329 C385.00064034 162.13591774 385.00053933 165.79211922 384.9993571 169.44834757 C384.99915235 173.399437 385.00467898 177.3505192 385.00941467 181.30160522 C385.01770612 189.03579543 385.02046884 196.769978 385.02102705 204.50417228 C385.02150299 210.79482948 385.02356162 217.08548418 385.02672768 223.37614059 C385.03553066 241.23168032 385.04014769 259.08721404 385.0393972 276.94275595 C385.03933727 278.38537208 385.03933727 278.38537208 385.03927612 279.85713196 C385.03923524 280.82005759 385.03919436 281.78298322 385.03915224 282.77508841 C385.03874602 298.37135475 385.04831047 313.96759691 385.06241449 329.56385626 C385.07679942 345.59796129 385.08368349 361.63205454 385.08282071 377.66616619 C385.08248944 386.65999871 385.08520572 395.65380591 385.09599876 404.6476326 C385.10513172 412.30691673 385.1072562 419.96616405 385.10048934 427.62545128 C385.09723801 431.52806139 385.09711687 435.43060099 385.10584259 439.33320427 C385.11377055 442.91609172 385.11221285 446.49885348 385.10355846 450.0817381 C385.10132466 451.97004522 385.10880244 453.85835644 385.1167981 455.74664795 C385.01052404 482.47045708 377.51743091 509.57053366 359.85397339 530.14717102 C359.16432495 530.9695929 358.47467651 531.79201477 357.76412964 532.63935852 C339.6470322 553.59023746 314.25255498 564.94135402 286.85397339 567.14717102 C282.73523218 567.2878935 278.61969406 567.29077505 274.49882507 567.28761292 C273.27847004 567.29058404 272.05811501 567.29355516 270.80077952 567.29661632 C267.43501265 567.30375853 264.06929687 567.30647263 260.70352614 567.30721378 C257.06549302 567.30907424 253.42747075 567.31662608 249.78944397 567.323349 C241.84768009 567.33688781 233.9059213 567.34294894 225.96414781 567.34735966 C221.00392122 567.35012739 216.04369657 567.35436548 211.0834713 567.35886383 C197.34316156 567.37104643 183.60285336 567.38135049 169.86253834 567.38473892 C168.98451564 567.38495849 168.10649295 567.38517805 167.20186351 567.38540427 C166.32179466 567.38562255 165.44172582 567.38584083 164.53498822 567.38606572 C162.75174955 567.38650918 160.96851089 567.38695575 159.18527222 567.3874054 C158.30073239 567.38762683 157.41619257 567.38784826 156.5048485 567.38807639 C142.15376194 567.39202936 127.80272599 567.40950304 113.451659 567.43276492 C98.7092013 567.45646819 83.96676904 567.46894016 69.22429198 567.47010684 C60.95005033 567.47102372 52.67587482 567.47678015 44.40165138 567.49492645 C37.36133162 567.510313 30.32109847 567.51545615 23.28076509 567.50718835 C19.68909634 567.50327785 16.0976021 567.50423106 12.50595474 567.5182457 C8.61328442 567.53329639 4.72086065 567.52513079 0.82817078 567.5146637 C-0.30771569 567.5227201 -1.44360216 567.53077651 -2.61390942 567.53907704 C-8.19205404 567.50388227 -12.36921192 567.38309148 -17.14602661 564.14717102 C-20.64262954 560.28885054 -21.27143748 556.94843202 -21.259552 551.8495636 C-21.25943871 550.22822258 -21.25943871 550.22822258 -21.25932312 548.5741272 C-21.25416183 547.40842697 -21.24900055 546.24272675 -21.24368286 545.04170227 C-21.24226791 543.84736069 -21.24085297 542.6530191 -21.23939514 541.42248535 C-21.23379011 537.60152194 -21.22123672 533.78061677 -21.20852661 529.95967102 C-21.20351226 527.37178124 -21.19894924 524.78389054 -21.19485474 522.19599915 C-21.18381904 515.84636984 -21.16707597 509.49677459 -21.14602661 503.14717102 C-21.74889999 503.15446732 -22.35177338 503.16176361 -22.97291565 503.16928101 C-23.77181717 503.1749559 -24.57071869 503.1806308 -25.39382935 503.18647766 C-26.18232773 503.19377396 -26.97082611 503.20107025 -27.78321838 503.20858765 C-31.3746919 503.11523424 -34.72779947 502.43266333 -38.20852661 501.58467102 C-38.93241577 501.40976135 -39.65630493 501.23485168 -40.40213013 501.05464172 C-62.20778563 495.44423074 -82.51747964 481.73104842 -94.24441528 462.23774719 C-104.96771647 443.66514254 -109.30679613 425.37105639 -109.27973938 404.05497742 C-109.28200494 402.74311608 -109.28427049 401.43125474 -109.2866047 400.07964003 C-109.29270047 396.4534303 -109.29259173 392.8272437 -109.29141033 389.20103002 C-109.29120575 385.28402558 -109.29673054 381.36702847 -109.3014679 377.45002747 C-109.30976322 369.78087343 -109.31252225 362.11172709 -109.31308027 354.44256894 C-109.31355604 348.20527358 -109.31561383 341.96798075 -109.3187809 335.73068619 C-109.32758505 318.03018523 -109.33220074 300.32969032 -109.33145043 282.62918715 C-109.33141047 281.67557593 -109.33137051 280.72196471 -109.33132935 279.73945618 C-109.33128847 278.78467458 -109.33124758 277.82989298 -109.33120546 276.84617861 C-109.33079924 261.38173684 -109.34036341 245.91731944 -109.35446771 230.45288472 C-109.36884986 214.55780769 -109.37573686 198.66274253 -109.37487394 182.76765883 C-109.37454256 173.85041437 -109.37726336 164.93319546 -109.38805199 156.01595688 C-109.39718128 148.42176391 -109.39931241 140.82760805 -109.39254256 133.23341195 C-109.38928936 129.36333674 -109.38917696 125.49333265 -109.39789581 121.62326431 C-109.40581538 118.07122926 -109.40427439 114.51932108 -109.39561168 110.96728893 C-109.3933744 109.09310727 -109.40086235 107.2189215 -109.40885133 105.34475553 C-109.2890591 75.52966271 -98.17521246 50.55312987 -77.64602661 29.27217102 C-72.82098494 24.60277586 -67.82889799 20.70866704 -62.14602661 17.14717102 C-61.24497192 16.56322571 -60.34391724 15.9792804 -59.41555786 15.37763977 C-41.23940286 4.11872594 -21.17202295 -0.00318512 0 0 Z " fill="#FEFEFE" transform="translate(380.1460266113281,228.8528289794922)"/>
<path d="M0 0 C1.31750586 -0.00367669 2.63501173 -0.00735338 3.99244201 -0.01114148 C7.63409186 -0.0211047 11.27572523 -0.024869 14.91738677 -0.02753079 C18.85060171 -0.03145033 22.78380381 -0.04102686 26.7170105 -0.04974365 C36.20284055 -0.06945269 45.68867159 -0.07956324 55.17451698 -0.08847144 C59.64366748 -0.09285996 64.11281682 -0.09822498 68.5819664 -0.10346031 C83.43827888 -0.12046043 98.29459063 -0.13495737 113.15091133 -0.14220905 C117.00098802 -0.14411884 120.8510647 -0.1460392 124.70114136 -0.147995 C126.13646148 -0.14872061 126.13646148 -0.14872061 127.60077797 -0.14946087 C143.12238279 -0.15777202 158.64391082 -0.18313261 174.16548206 -0.21557567 C190.10572077 -0.24862231 206.04592038 -0.26665529 221.98619354 -0.26985329 C230.93452024 -0.27201967 239.88273466 -0.28078796 248.83102798 -0.30631447 C256.44597057 -0.32798801 264.06077355 -0.3360881 271.67574348 -0.32634769 C275.56111281 -0.3217944 279.44619386 -0.32374888 283.3315239 -0.34310913 C287.54185816 -0.36390825 291.75154938 -0.3537842 295.96191406 -0.34057617 C297.80684108 -0.35703004 297.80684108 -0.35703004 299.68903935 -0.37381631 C306.01518463 -0.32572062 310.09310208 -0.21323003 314.85397339 4.14717102 C317.12949916 7.30568714 317.09767004 10.09694122 317.08102417 13.92549133 C317.08087311 15.08639282 317.08072205 16.24729431 317.08056641 17.44337463 C317.07024384 18.69140869 317.05992126 19.93944275 317.04928589 21.22529602 C317.04504105 23.14786224 317.04504105 23.14786224 317.04071045 25.10926819 C317.03309127 28.50906741 317.01345773 31.90869448 316.99130249 35.3084259 C316.97080697 38.78069226 316.96170083 42.25298655 316.95162964 45.72529602 C316.93021005 52.53265819 316.89609495 59.33990633 316.85397339 66.14717102 C317.5364212 66.20839142 318.21886902 66.26961182 318.92199707 66.33268738 C319.81945648 66.41696991 320.71691589 66.50125244 321.64157104 66.58808899 C322.53026886 66.66993439 323.41896667 66.75177979 324.33459473 66.83610535 C342.0980456 69.02934446 357.90693808 82.34745114 368.66647339 95.89717102 C381.23958549 113.54963819 385.01464023 133.0909893 384.98768616 154.46678162 C384.98955715 155.80441949 384.99185901 157.14205682 384.99455148 158.47969329 C385.00064034 162.13591774 385.00053933 165.79211922 384.9993571 169.44834757 C384.99915235 173.399437 385.00467898 177.3505192 385.00941467 181.30160522 C385.01770612 189.03579543 385.02046884 196.769978 385.02102705 204.50417228 C385.02150299 210.79482948 385.02356162 217.08548418 385.02672768 223.37614059 C385.03553066 241.23168032 385.04014769 259.08721404 385.0393972 276.94275595 C385.03933727 278.38537208 385.03933727 278.38537208 385.03927612 279.85713196 C385.03923524 280.82005759 385.03919436 281.78298322 385.03915224 282.77508841 C385.03874602 298.37135475 385.04831047 313.96759691 385.06241449 329.56385626 C385.07679942 345.59796129 385.08368349 361.63205454 385.08282071 377.66616619 C385.08248944 386.65999871 385.08520572 395.65380591 385.09599876 404.6476326 C385.10513172 412.30691673 385.1072562 419.96616405 385.10048934 427.62545128 C385.09723801 431.52806139 385.09711687 435.43060099 385.10584259 439.33320427 C385.11377055 442.91609172 385.11221285 446.49885348 385.10355846 450.0817381 C385.10132466 451.97004522 385.10880244 453.85835644 385.1167981 455.74664795 C385.01052404 482.47045708 377.51743091 509.57053366 359.85397339 530.14717102 C359.16432495 530.9695929 358.47467651 531.79201477 357.76412964 532.63935852 C339.6470322 553.59023746 314.25255498 564.94135402 286.85397339 567.14717102 C282.73523218 567.2878935 278.61969406 567.29077505 274.49882507 567.28761292 C273.27847004 567.29058404 272.05811501 567.29355516 270.80077952 567.29661632 C267.43501265 567.30375853 264.06929687 567.30647263 260.70352614 567.30721378 C257.06549302 567.30907424 253.42747075 567.31662608 249.78944397 567.323349 C241.84768009 567.33688781 233.9059213 567.34294894 225.96414781 567.34735966 C221.00392122 567.35012739 216.04369657 567.35436548 211.0834713 567.35886383 C197.34316156 567.37104643 183.60285336 567.38135049 169.86253834 567.38473892 C168.98451564 567.38495849 168.10649295 567.38517805 167.20186351 567.38540427 C166.32179466 567.38562255 165.44172582 567.38584083 164.53498822 567.38606572 C162.75174955 567.38650918 160.96851089 567.38695575 159.18527222 567.3874054 C158.30073239 567.38762683 157.41619257 567.38784826 156.5048485 567.38807639 C142.15376194 567.39202936 127.80272599 567.40950304 113.451659 567.43276492 C98.7092013 567.45646819 83.96676904 567.46894016 69.22429198 567.47010684 C60.95005033 567.47102372 52.67587482 567.47678015 44.40165138 567.49492645 C37.36133162 567.510313 30.32109847 567.51545615 23.28076509 567.50718835 C19.68909634 567.50327785 16.0976021 567.50423106 12.50595474 567.5182457 C8.61328442 567.53329639 4.72086065 567.52513079 0.82817078 567.5146637 C-0.30771569 567.5227201 -1.44360216 567.53077651 -2.61390942 567.53907704 C-8.19205404 567.50388227 -12.36921192 567.38309148 -17.14602661 564.14717102 C-20.64262954 560.28885054 -21.27143748 556.94843202 -21.259552 551.8495636 C-21.25943871 550.22822258 -21.25943871 550.22822258 -21.25932312 548.5741272 C-21.25416183 547.40842697 -21.24900055 546.24272675 -21.24368286 545.04170227 C-21.24226791 543.84736069 -21.24085297 542.6530191 -21.23939514 541.42248535 C-21.23379011 537.60152194 -21.22123672 533.78061677 -21.20852661 529.95967102 C-21.20351226 527.37178124 -21.19894924 524.78389054 -21.19485474 522.19599915 C-21.18381904 515.84636984 -21.16707597 509.49677459 -21.14602661 503.14717102 C-21.74889999 503.15446732 -22.35177338 503.16176361 -22.97291565 503.16928101 C-23.77181717 503.1749559 -24.57071869 503.1806308 -25.39382935 503.18647766 C-26.18232773 503.19377396 -26.97082611 503.20107025 -27.78321838 503.20858765 C-31.3746919 503.11523424 -34.72779947 502.43266333 -38.20852661 501.58467102 C-38.93241577 501.40976135 -39.65630493 501.23485168 -40.40213013 501.05464172 C-62.20778563 495.44423074 -82.51747964 481.73104842 -94.24441528 462.23774719 C-104.96771647 443.66514254 -109.30679613 425.37105639 -109.27973938 404.05497742 C-109.28200494 402.74311608 -109.28427049 401.43125474 -109.2866047 400.07964003 C-109.29270047 396.4534303 -109.29259173 392.8272437 -109.29141033 389.20103002 C-109.29120575 385.28402558 -109.29673054 381.36702847 -109.3014679 377.45002747 C-109.30976322 369.78087343 -109.31252225 362.11172709 -109.31308027 354.44256894 C-109.31355604 348.20527358 -109.31561383 341.96798075 -109.3187809 335.73068619 C-109.32758505 318.03018523 -109.33220074 300.32969032 -109.33145043 282.62918715 C-109.33141047 281.67557593 -109.33137051 280.72196471 -109.33132935 279.73945618 C-109.33128847 278.78467458 -109.33124758 277.82989298 -109.33120546 276.84617861 C-109.33079924 261.38173684 -109.34036341 245.91731944 -109.35446771 230.45288472 C-109.36884986 214.55780769 -109.37573686 198.66274253 -109.37487394 182.76765883 C-109.37454256 173.85041437 -109.37726336 164.93319546 -109.38805199 156.01595688 C-109.39718128 148.42176391 -109.39931241 140.82760805 -109.39254256 133.23341195 C-109.38928936 129.36333674 -109.38917696 125.49333265 -109.39789581 121.62326431 C-109.40581538 118.07122926 -109.40427439 114.51932108 -109.39561168 110.96728893 C-109.3933744 109.09310727 -109.40086235 107.2189215 -109.40885133 105.34475553 C-109.2890591 75.52966271 -98.17521246 50.55312987 -77.64602661 29.27217102 C-72.82098494 24.60277586 -67.82889799 20.70866704 -62.14602661 17.14717102 C-61.24497192 16.56322571 -60.34391724 15.9792804 -59.41555786 15.37763977 C-41.23940286 4.11872594 -21.17202295 -0.00318512 0 0 Z M-36.20852661 102.58467102 C-36.86844604 102.92321106 -37.52836548 103.2617511 -38.20828247 103.61054993 C-54.98167991 112.71789395 -66.2309267 128.99717843 -72.40383911 146.76826477 C-75.54785668 157.39970194 -77.4505482 167.72565956 -77.41345215 178.81530762 C-77.41798326 179.83022178 -77.42251437 180.84513593 -77.42718279 181.89080507 C-77.43974988 185.2604062 -77.43821141 188.62984411 -77.43655396 191.99946594 C-77.44254402 194.42830104 -77.44935066 196.85713424 -77.45690918 199.28596497 C-77.47270108 205.18070392 -77.47901546 211.07540519 -77.48013394 216.97016098 C-77.48108785 221.76715441 -77.48521518 226.56413476 -77.49153519 231.36112404 C-77.50912814 244.99413501 -77.51837713 258.62711464 -77.51687424 272.26013704 C-77.51679433 272.99347593 -77.51671441 273.72681482 -77.51663208 274.4823761 C-77.51655032 275.21662169 -77.51646856 275.95086729 -77.51638432 276.70736275 C-77.51557201 288.59755083 -77.5347009 300.48761206 -77.56290881 312.37776347 C-77.59171676 324.6184923 -77.60544477 336.85915941 -77.60372126 349.09992296 C-77.60306008 355.95931095 -77.60843239 362.81856596 -77.63007736 369.6779232 C-77.65031969 376.13358422 -77.64953508 382.58903783 -77.6350441 389.04471588 C-77.63296378 391.40363031 -77.6376101 393.76256258 -77.64976501 396.12144661 C-77.75564421 418.10661505 -75.26433091 438.37146384 -59.48025513 455.08369446 C-47.65668227 466.89721497 -33.01069893 472.33521917 -16.53397769 472.41931993 C-15.3038205 472.4155406 -14.07366331 472.41176128 -12.80622864 472.40786743 C-11.46645118 472.41089226 -10.12667544 472.4147834 -8.78690273 472.41946 C-5.12486268 472.42970619 -1.4629209 472.42756684 2.19912708 472.4232794 C6.15630124 472.420806 10.11345212 472.42983399 14.07061768 472.43731689 C21.81584038 472.45004915 29.56102838 472.4518594 37.30625979 472.44951663 C43.60409662 472.44773156 49.90192295 472.44948717 56.19975853 472.45374107 C57.09706685 472.45433626 57.99437517 472.45493145 58.91887465 472.45554468 C60.74193707 472.45675647 62.56499949 472.4579706 64.3880619 472.45918705 C81.47507093 472.47005705 98.56206021 472.46790274 115.64907034 472.46180221 C131.26677748 472.4566343 146.88442222 472.46788613 162.50211702 472.48690043 C178.55316193 472.50629192 194.60417734 472.51453248 210.65523404 472.51077718 C219.66071863 472.50886702 228.66615012 472.5113345 237.67162514 472.52549171 C245.33869754 472.53742324 253.00568416 472.53879061 260.67275778 472.52670155 C264.58110198 472.52082511 268.48928943 472.51967903 272.39762306 472.53170395 C275.9822611 472.54260433 279.5666123 472.53941057 283.15123715 472.52544226 C285.0477287 472.5215675 286.94423319 472.53230845 288.84069425 472.54373914 C305.28658377 472.44071994 321.93750541 466.90713754 333.85397339 455.14717102 C346.51756481 440.74206703 353.35435092 424.57595072 353.24165344 405.37171936 C353.24703898 404.24977842 353.25242452 403.12783747 353.25797325 401.97189832 C353.27217827 398.24602835 353.26516737 394.52051741 353.25802612 390.79463196 C353.26373366 388.10948581 353.27059981 385.42436464 353.27882385 382.73922729 C353.29595329 376.22229767 353.29686393 369.70546471 353.29161095 363.18851843 C353.28755631 357.88620524 353.28902811 352.58392044 353.29435921 347.28160858 C353.29510763 346.52462969 353.29585605 345.76765079 353.29662715 344.98773314 C353.29815877 343.44950824 353.29969711 341.91128335 353.30124212 340.37305847 C353.3149465 325.97176403 353.30954447 311.57052402 353.29805691 297.16923085 C353.28813125 284.02460051 353.3010573 270.88011107 353.3249911 257.73550245 C353.34943723 244.20652221 353.35897618 230.67760745 353.35233837 217.14860559 C353.34885778 209.56601123 353.35100083 201.9835251 353.3685894 194.40094757 C353.38338077 187.94468317 353.38385728 181.48860316 353.36651849 175.03234211 C353.35806174 171.7451611 353.35793305 168.4583727 353.37117004 165.17119789 C353.44734572 144.67955295 352.78032876 124.80926107 337.86959839 108.99092102 C321.53706391 94.05108328 300.58150308 95.55650915 279.89476442 95.63893139 C275.97106718 95.65014345 272.04742702 95.63806521 268.12373352 95.62908936 C260.45829303 95.61522462 252.79301833 95.62266234 245.12758587 95.63776494 C236.18562018 95.65470585 227.24369486 95.6514047 218.30171807 95.64767086 C202.339611 95.64180485 186.37758305 95.65591518 170.41549683 95.68061829 C154.95420366 95.70454339 139.49301612 95.71161777 124.03170776 95.7011261 C107.16049923 95.68969807 90.28933944 95.68780946 73.41813147 95.7022242 C71.6167632 95.7037499 69.81539492 95.70527026 68.01402664 95.7067852 C67.1279088 95.70754302 66.24179095 95.70830083 65.32882106 95.70908161 C59.10701765 95.71380925 52.88523613 95.71198388 46.66343307 95.7077198 C39.07489428 95.70277606 31.48645504 95.70885352 23.89793895 95.7286141 C20.03183693 95.73843598 16.16588598 95.74364689 12.29977608 95.73572159 C8.09710932 95.72728305 3.89483998 95.74233998 -0.30780029 95.75949097 C-1.5128829 95.75348092 -2.7179655 95.74747088 -3.95956576 95.74127871 C-15.04786071 95.82314462 -26.27330411 97.40376805 -36.20852661 102.58467102 Z " fill="#010101" transform="translate(380.1460266113281,228.8528289794922)"/>
<path d="M0 0 C0.91136719 -0.02900391 1.82273437 -0.05800781 2.76171875 -0.08789062 C9.47364048 -0.15176689 9.47364048 -0.15176689 12.6953125 2.14453125 C14.73534886 5.238029 15.24988363 7.7029769 15.22265625 11.32421875 C15.21782227 12.46020508 15.21782227 12.46020508 15.21289062 13.61914062 C15.20032227 14.79766602 15.20032227 14.79766602 15.1875 16 C15.18298828 16.79728516 15.17847656 17.59457031 15.17382812 18.41601562 C15.1620585 20.38154257 15.14412348 22.34703085 15.125 24.3125 C16.13691406 24.2815625 17.14882813 24.250625 18.19140625 24.21875 C34.00541574 24.59564794 50.64353518 32.73498049 61.7890625 43.6796875 C69.00249975 51.80988267 74.22284488 61.32079783 75.625 72.1875 C75.01743723 75.98476729 73.86481329 77.65096709 71.125 80.3125 C67.10310055 81.65313315 63.39837478 81.49667125 59.1875 81.5 C57.97030273 81.51836914 57.97030273 81.51836914 56.72851562 81.53710938 C55.94283203 81.53904297 55.15714844 81.54097656 54.34765625 81.54296875 C53.63359619 81.54707764 52.91953613 81.55118652 52.18383789 81.55541992 C49.76213299 81.26968574 48.19162093 80.59626813 46.125 79.3125 C44.66796875 76.921875 44.66796875 76.921875 43.3125 74.0625 C38.19923376 64.34348774 31.39143081 60.8232277 21.125 57.3125 C19.475 56.9825 17.825 56.6525 16.125 56.3125 C15.795 77.4325 15.465 98.5525 15.125 120.3125 C20.57 121.3025 20.57 121.3025 26.125 122.3125 C28.82646852 123.14036939 31.38338164 123.97612063 34 125 C35.01562012 125.39409058 35.01562012 125.39409058 36.05175781 125.79614258 C53.24121483 132.6424831 67.16454268 142.51587924 75.65625 159.34765625 C81.06841286 172.20154305 81.19511287 187.35088758 76.37109375 200.4375 C75.95988281 201.38625 75.54867187 202.335 75.125 203.3125 C74.72410156 204.240625 74.32320312 205.16875 73.91015625 206.125 C65.96589888 222.33589041 51.63518084 232.87996201 35.125 239.3125 C28.28019259 241.52479498 22.28246647 242.45058617 15.125 242.3125 C15.15980469 243.47007812 15.19460938 244.62765625 15.23046875 245.8203125 C15.25862207 247.3593604 15.28592056 248.89842411 15.3125 250.4375 C15.33763672 251.19804688 15.36277344 251.95859375 15.38867188 252.7421875 C15.45260579 257.6864105 14.88019506 261.02960599 12.125 265.3125 C8.24811895 267.25094052 3.51490477 266.62788888 -0.75 266.6875 C-1.75675781 266.72488281 -2.76351562 266.76226563 -3.80078125 266.80078125 C-11.06815418 266.88764228 -11.06815418 266.88764228 -14.5546875 264.40234375 C-16.4233382 260.02925882 -16.30721025 256.19892201 -16.125 251.5 C-16.10695313 250.61634766 -16.08890625 249.73269531 -16.0703125 248.82226562 C-16.02338513 246.65187457 -15.95164731 244.48204481 -15.875 242.3125 C-16.63941406 242.29832031 -17.40382813 242.28414062 -18.19140625 242.26953125 C-38.8279803 241.35069462 -55.01118423 232.13824678 -68.75390625 217.28125 C-75.3773588 209.11866618 -80.82713748 197.97643978 -79.875 187.3125 C-78.00791495 184.94752561 -76.55438569 183.65219285 -73.875 182.3125 C-70.61154645 181.9951919 -67.33949132 181.98830607 -64.0625 181.9375 C-63.15951172 181.90011719 -62.25652344 181.86273437 -61.32617188 181.82421875 C-56.83132406 181.76477183 -54.60857758 181.76255972 -50.92578125 184.5234375 C-49.05682885 187.06521277 -47.39448334 189.54980301 -45.875 192.3125 C-41.13978539 200.41631033 -34.41609721 205.98523917 -25.75 209.625 C-22.50218704 210.40165093 -19.18082005 210.84023999 -15.875 211.3125 C-15.875 189.2025 -15.875 167.0925 -15.875 144.3125 C-19.835 143.3225 -23.795 142.3325 -27.875 141.3125 C-45.64175592 135.73054425 -63.88301698 126.48987619 -72.875 109.3125 C-74.14974774 106.36236951 -75.07872606 103.42376904 -75.875 100.3125 C-76.07996094 99.53132813 -76.28492188 98.75015625 -76.49609375 97.9453125 C-80.13340753 82.24215096 -77.21865274 66.8306981 -68.99072266 53.01464844 C-58.25432695 36.63518436 -41.9155577 28.39764332 -23.37890625 24.01171875 C-19.875 23.3125 -19.875 23.3125 -15.875 23.3125 C-15.92140625 22.14332031 -15.9678125 20.97414063 -16.015625 19.76953125 C-16.05315594 18.2213798 -16.08955469 16.67320061 -16.125 15.125 C-16.15851563 14.35607422 -16.19203125 13.58714844 -16.2265625 12.79492188 C-16.29566039 8.76996992 -16.19255003 6.81441276 -13.984375 3.32421875 C-9.79146743 -0.67457273 -5.52779993 0.05814656 0 0 Z " fill="#010101" transform="translate(512.875,385.6875)"/>
<path d="M0 0 C0 11.22 0 22.44 0 34 C-3.80836899 34.00364563 -7.61673798 34.00729126 -11.54051208 34.01104736 C-46.51433698 34.04637066 -81.48808644 34.10145576 -116.46184638 34.17792095 C-121.05146823 34.18793766 -125.64109044 34.19778192 -130.23071289 34.20751953 C-131.60120208 34.21043159 -131.60120208 34.21043159 -132.99937791 34.21340248 C-147.76713591 34.24437084 -162.53487839 34.26138868 -177.30266272 34.27319422 C-192.47094535 34.2856326 -207.63914692 34.31319441 -222.80737835 34.35461307 C-232.1568592 34.37967177 -241.50620551 34.39312287 -250.85572041 34.39142957 C-257.27874431 34.39139967 -263.70163181 34.40614226 -270.12460249 34.43216428 C-273.82290553 34.44672184 -277.52092891 34.45509013 -281.21925545 34.44580269 C-310.30475292 34.38102225 -335.25484683 38.24720126 -356.6875 59.5 C-358.13279163 60.992494 -359.57329177 62.48973185 -361 64 C-363.40880946 57.9629213 -359.29042189 50.71331444 -357 45 C-352.62263683 34.97515792 -346.6660352 27.59878928 -339 20 C-338.36578125 19.33226562 -337.7315625 18.66453125 -337.078125 17.9765625 C-333.07073642 14.05783296 -328.48835392 11.40398222 -323.5625 8.8125 C-322.97315674 8.49120117 -322.38381348 8.16990234 -321.77661133 7.83886719 C-305.90399253 -0.05966485 -288.5936941 0.40557925 -271.32908368 0.45119452 C-267.75592746 0.45619767 -264.18287346 0.43798266 -260.60975647 0.42277527 C-254.43748249 0.39959751 -248.26532554 0.39070876 -242.09300995 0.39188385 C-233.16377551 0.3935625 -224.23469566 0.37312199 -215.30550268 0.34752855 C-200.80670334 0.30656245 -186.30793206 0.28316508 -171.80908203 0.27099609 C-157.74818216 0.25915674 -143.68733519 0.23893328 -129.62646484 0.20751953 C-128.75856845 0.20558343 -127.89067207 0.20364733 -126.99647579 0.20165256 C-122.64119902 0.19188576 -118.28592264 0.1819563 -113.93064642 0.17194796 C-86.68522634 0.10950912 -59.4398097 0.05973851 -32.19433594 0.02832031 C-31.1587387 0.02712562 -31.1587387 0.02712562 -30.1022203 0.0259068 C-7.48701963 0 -7.48701963 0 0 0 Z " fill="#FCFCFC" transform="translate(665,260)"/>
<path d="M0 0 C1 2 1 2 0.21484375 4.65234375 C-7.72495284 25.07243223 -19.12856993 40.83744216 -39 51 C-49.7877799 55.7051436 -60.16493757 57.30458577 -71.87039185 57.24050903 C-73.02641431 57.24221788 -74.18243677 57.24392673 -75.37349021 57.24568737 C-79.22578291 57.24896715 -83.07789928 57.23800337 -86.93017578 57.22705078 C-89.70008961 57.22537064 -92.47000007 57.22671592 -95.23991394 57.22793579 C-101.19241263 57.2289815 -107.14486728 57.22273787 -113.09735489 57.21146011 C-121.70351164 57.19516531 -130.30964722 57.18999304 -138.91581772 57.18748413 C-152.88073949 57.18311326 -166.84563782 57.16982069 -180.81054688 57.15087891 C-194.37141808 57.13250435 -207.93228291 57.11835556 -221.49316406 57.10986328 C-222.74824185 57.10907511 -222.74824185 57.10907511 -224.02867474 57.10827102 C-228.22649237 57.10566083 -232.42431006 57.10313344 -236.62212777 57.10064721 C-271.41476924 57.07993365 -306.20738088 57.04417201 -341 57 C-341 46.77 -341 36.54 -341 26 C-335.64116577 25.99120064 -335.64116577 25.99120064 -330.17407227 25.98222351 C-297.36552391 25.92697444 -264.55703409 25.85697359 -231.74855143 25.77101372 C-227.44304499 25.7597464 -223.13753823 25.74860781 -218.83203125 25.73754883 C-217.97493116 25.73534514 -217.11783108 25.73314146 -216.23475826 25.730871 C-202.38134398 25.69555912 -188.52792975 25.67066057 -174.67448723 25.64965298 C-160.44525798 25.62784214 -146.21608681 25.59474186 -131.98690701 25.55129844 C-123.21631868 25.52487246 -114.44580263 25.50711054 -105.6751765 25.50065396 C-99.64977857 25.49537223 -93.62447137 25.47906267 -87.59912217 25.45433434 C-84.12983939 25.44041401 -80.66071865 25.43111262 -77.19140625 25.43499184 C-48.73909691 25.44753609 -22.59864885 22.12587442 -1.21875 1.26171875 C-0.8165625 0.84535156 -0.414375 0.42898438 0 0 Z " fill="#FEFEFE" transform="translate(731,707)"/>
<path d="M0 0 C23.91343553 7.97114518 23.91343553 7.97114518 31 20 C33.23554407 26.70663222 32.9337243 33.90745657 29.9375 40.3125 C25.20426234 48.5956659 18.92904557 53.79128784 9.85546875 56.68359375 C6.45419365 57.59859354 3.53676444 58 0 58 C0 38.86 0 19.72 0 0 Z " fill="#FDFDFD" transform="translate(528,538)"/>
<path d="M0 0 C0 18.81 0 37.62 0 57 C-12.80110062 52.73296646 -22.08879717 48.55499847 -28.9375 36.625 C-31.12081302 29.17604971 -30.62412156 22.49187083 -27.453125 15.390625 C-22.62081529 7.44069612 -14.69610646 2.98932872 -5.98828125 0.40234375 C-4 0 -4 0 0 0 Z " fill="#F9F9F9" transform="translate(497,442)"/>
</svg>
